<?xml version="1.0" encoding="utf-8"?>
<!-- Generator: Adobe Illustrator 16.0.0, SVG Export Plug-In . SVG Version: 6.00 Build 0)  -->
<!DOCTYPE svg PUBLIC "-//W3C//DTD SVG 1.1//EN" "http://www.w3.org/Graphics/SVG/1.1/DTD/svg11.dtd">
<svg version="1.1" id="Layer_1" xmlns="http://www.w3.org/2000/svg" xmlns:xlink="http://www.w3.org/1999/xlink" x="0px" y="0px"
	 width="128px" height="128px" viewBox="0 0 128 128" enable-background="new 0 0 128 128" xml:space="preserve">
<g>
	<path fill="#FBB040" d="M64.667,126c-34.187,0-62-27.813-62-62c0-34.187,27.813-62,62-62c34.187,0,62,27.813,62,62
		C126.667,98.187,98.854,126,64.667,126z"/>
	<path fill="#009444" d="M64.667,4c33.084,0,60,26.916,60,60s-26.916,60-60,60s-60-26.916-60-60S31.583,4,64.667,4 M64.667,0
		c-35.347,0-64,28.653-64,64s28.653,64,64,64s64-28.653,64-64S100.014,0,64.667,0L64.667,0z"/>
</g>
<g>
	
		<path fill="#A7A9AC" stroke="#000000" stroke-width="4" stroke-linecap="round" stroke-linejoin="round" stroke-miterlimit="10" d="
		M83.773,56.125c-5-1-13.25-9.5-13.25-9.5c-0.25-7.25,4.25-10.25,4.25-10.25c-8.75,3.5-24.5,0-24.5,0c4.75,1,6.75,10.25,6.75,10.25
		c-0.5,6.75-4.5,7.5-4.5,7.5c-13.25,1.75-14,11.5-14,11.5c-20.5,25.75,24,26,24,26c21.75,0,31.25-14,31.25-14
		C99.023,70.375,83.773,56.125,83.773,56.125z"/>
	
		<line fill="#FBB040" stroke="#000000" stroke-width="4" stroke-linecap="round" stroke-linejoin="round" stroke-miterlimit="10" x1="70.523" y1="46.625" x2="57.024" y2="46.625"/>
	<text transform="matrix(1 0 0 1 57.0239 79.4629)" font-family="'MyriadPro-Regular'" font-size="26.144">$</text>
</g>
</svg>
