<?xml version="1.0" encoding="utf-8"?>
<!-- Generator: Adobe Illustrator 16.0.0, SVG Export Plug-In . SVG Version: 6.00 Build 0)  -->
<!DOCTYPE svg PUBLIC "-//W3C//DTD SVG 1.1//EN" "http://www.w3.org/Graphics/SVG/1.1/DTD/svg11.dtd">
<svg version="1.1" id="Layer_1" xmlns="http://www.w3.org/2000/svg" xmlns:xlink="http://www.w3.org/1999/xlink" x="0px" y="0px"
	 width="128px" height="128px" viewBox="0 0 128 128" enable-background="new 0 0 128 128" xml:space="preserve">
<g>
	<path fill="#A7A9AC" d="M64.667,126c-34.187,0-62-27.813-62-62c0-34.187,27.813-62,62-62c34.187,0,62,27.813,62,62
		C126.667,98.187,98.854,126,64.667,126z"/>
	<path fill="#009444" d="M64.667,4c33.084,0,60,26.916,60,60s-26.916,60-60,60s-60-26.916-60-60S31.583,4,64.667,4 M64.667,0
		c-35.347,0-64,28.653-64,64s28.653,64,64,64s64-28.653,64-64S100.014,0,64.667,0L64.667,0z"/>
</g>
<text transform="matrix(1 0 0 1 35.6704 58.3379)"><tspan x="0" y="0" font-family="'MyriadPro-Regular'" font-size="18.474">Natural</tspan><tspan x="12.922" y="22.169" font-family="'MyriadPro-Regular'" font-size="18.474">Skill</tspan></text>
</svg>
