<?xml version="1.0" encoding="utf-8"?>
<!-- Generator: Adobe Illustrator 16.0.0, SVG Export Plug-In . SVG Version: 6.00 Build 0)  -->
<!DOCTYPE svg PUBLIC "-//W3C//DTD SVG 1.1//EN" "http://www.w3.org/Graphics/SVG/1.1/DTD/svg11.dtd">
<svg version="1.1" id="Layer_1" xmlns="http://www.w3.org/2000/svg" xmlns:xlink="http://www.w3.org/1999/xlink" x="0px" y="0px"
	 width="128px" height="128px" viewBox="0 0 128 128" enable-background="new 0 0 128 128" xml:space="preserve">
<path fill="#A7A9AC" d="M64,126C29.813,126,2,98.188,2,64C2,29.813,29.813,2,64,2c34.187,0,62,27.813,62,62
	C126,98.188,98.187,126,64,126z"/>
<path d="M64,4c33.084,0,60,26.916,60,60s-26.916,60-60,60S4,97.084,4,64S30.916,4,64,4 M64,0C28.653,0,0,28.653,0,64
	c0,35.348,28.653,64,64,64c35.347,0,64-28.652,64-64C128,28.653,99.347,0,64,0L64,0z"/>
<path fill="#414042" d="M100.862,55.17c0-19.302-15.314-34.95-34.204-34.95c-1.224,0-2.43,0.071-3.62,0.199l0.195-0.199
	c-35.229,3.217-30.604,31.385-30.604,31.385l0,0c-0.116,1.172-0.176,2.362-0.176,3.565c0,0.846,0.066,1.675,0.124,2.507
	c-0.521,3.723-1.882,10.919-5.134,16.838c0,0-2.241,6.016,5.426,4.364c0,0,1.179,0.472,0.826,1.298c0,0-1.77,3.42,1.062,3.656
	c0,0,10.026,1.77,1.18,5.544c0,0-1.18,1.416,0.708,1.888c0,0,2.949,2.241,3.657,3.893c0,0,2.636,10.38,9.87,8.847
	c0,0,11.954,0.472,15.375,3.775c20.967-2.878,28.863-22.112,31.817-37.285C99.582,65.863,100.862,60.675,100.862,55.17z"/>
</svg>
