<?xml version="1.0" encoding="utf-8"?>
<!-- Generator: Adobe Illustrator 16.0.0, SVG Export Plug-In . SVG Version: 6.00 Build 0)  -->
<!DOCTYPE svg PUBLIC "-//W3C//DTD SVG 1.1//EN" "http://www.w3.org/Graphics/SVG/1.1/DTD/svg11.dtd">
<svg version="1.1" id="Layer_1" xmlns="http://www.w3.org/2000/svg" xmlns:xlink="http://www.w3.org/1999/xlink" x="0px" y="0px"
	 width="128px" height="128px" viewBox="0 0 128 128" enable-background="new 0 0 128 128" xml:space="preserve">
<path fill="#A7A9AC" d="M64,126C29.813,126,2,98.188,2,64C2,29.813,29.813,2,64,2c34.187,0,62,27.813,62,62
	C126,98.188,98.187,126,64,126z"/>
<path fill="#010101" d="M64,4c33.084,0,60,26.916,60,60s-26.916,60-60,60S4,97.084,4,64S30.916,4,64,4 M64,0C28.653,0,0,28.653,0,64
	c0,35.348,28.653,64,64,64c35.347,0,64-28.652,64-64C128,28.653,99.347,0,64,0L64,0z"/>
<path fill="#414042" d="M87.932,56.66L67.014,35.537v-0.546c4.994-1.33,8.677-5.87,8.677-11.283c0-6.457-5.232-11.69-11.69-11.69
	c-6.456,0-11.69,5.233-11.69,11.69c0,5.414,3.684,9.954,8.679,11.284v0.544L40.069,56.66c-1.171,1.183-1.162,3.089,0.021,4.259
	c0.587,0.583,1.353,0.872,2.119,0.872c0.776,0,1.551-0.298,2.14-0.893l16.64-16.803v31.816L44.997,111.74
	c-0.678,1.521,0.003,3.301,1.522,3.98c0.399,0.176,0.816,0.262,1.226,0.262c1.152,0,2.251-0.665,2.751-1.786l13.442-30.114
	c0.021,0,0.041,0.006,0.062,0.006c0.021,0,0.04-0.006,0.06-0.006l13.442,30.114c0.5,1.121,1.601,1.786,2.752,1.786
	c0.41,0,0.828-0.086,1.227-0.262c1.52-0.68,2.2-2.459,1.522-3.98L67.014,75.915V44.098l16.638,16.801
	c0.589,0.596,1.365,0.893,2.14,0.893c0.767,0,1.533-0.29,2.12-0.872C89.093,59.749,89.102,57.843,87.932,56.66z"/>
</svg>
