<?xml version="1.0" encoding="UTF-8" standalone="no"?>
<!-- Generator: Adobe Illustrator 16.0.0, SVG Export Plug-In . SVG Version: 6.00 Build 0)  -->

<svg
   xmlns:dc="http://purl.org/dc/elements/1.1/"
   xmlns:cc="http://creativecommons.org/ns#"
   xmlns:rdf="http://www.w3.org/1999/02/22-rdf-syntax-ns#"
   xmlns:svg="http://www.w3.org/2000/svg"
   xmlns="http://www.w3.org/2000/svg"
   xmlns:sodipodi="http://sodipodi.sourceforge.net/DTD/sodipodi-0.dtd"
   xmlns:inkscape="http://www.inkscape.org/namespaces/inkscape"
   version="1.1"
   id="Layer_1"
   x="0px"
   y="0px"
   width="128px"
   height="128px"
   viewBox="0 0 128 128"
   enable-background="new 0 0 128 128"
   xml:space="preserve"
   sodipodi:docname="race_ogre.svg"
   inkscape:version="0.92.4 (5da689c313, 2019-01-14)"><metadata
   id="metadata4261"><rdf:RDF><cc:Work
       rdf:about=""><dc:format>image/svg+xml</dc:format><dc:type
         rdf:resource="http://purl.org/dc/dcmitype/StillImage" /><dc:title></dc:title></cc:Work></rdf:RDF></metadata><defs
   id="defs4259" /><sodipodi:namedview
   pagecolor="#ffffff"
   bordercolor="#666666"
   borderopacity="1"
   objecttolerance="10"
   gridtolerance="10"
   guidetolerance="10"
   inkscape:pageopacity="0"
   inkscape:pageshadow="2"
   inkscape:window-width="1920"
   inkscape:window-height="1058"
   id="namedview4257"
   showgrid="false"
   inkscape:zoom="8.0000001"
   inkscape:cx="48.83079"
   inkscape:cy="31.612103"
   inkscape:window-x="-8"
   inkscape:window-y="-8"
   inkscape:window-maximized="1"
   inkscape:current-layer="Layer_1" />


<path
   d="m 64,124.875 c -34.187,0 -62,-27.812 -62,-62 0,-34.187 27.813,-62 62,-62 34.187,0 62,27.813 62,62 0,34.188 -27.813,62 -62,62 z"
   id="path4250"
   style="fill:#554400;fill-opacity:1"
   inkscape:connector-curvature="0" /><path
   inkscape:connector-curvature="0"
   d="m 64,4 c 33.084,0 60,26.916 60,60 0,33.084 -26.916,60 -60,60 C 30.916,124 4,97.084 4,64 4,30.916 30.916,4 64,4 M 64,0 C 28.653,0 0,28.653 0,64 0,99.348 28.653,128 64,128 99.347,128 128,99.348 128,64 128,28.653 99.347,0 64,0 Z"
   id="path4252"
   style="fill:#1a1a1a;fill-opacity:1" /><path
   d="m 27.137997,55.17 c 0,-19.302 15.314,-34.95 34.204,-34.95 1.224,0 2.43,0.071 3.62,0.199 l -0.195,-0.199 c 35.229,3.217 30.604,31.385 30.604,31.385 v 0 c 0.116,1.172 0.176,2.362 0.176,3.565 0,0.846 -0.066,1.675 -0.124,2.507 0.521,3.723 1.882,10.919 5.134003,16.838 0,0 2.241,6.016 -5.426003,4.364 0,0 -1.179,0.472 -0.826,1.298 0,0 1.148882,5.386874 -1.683118,5.622874 0,0 -8.846,-3.773999 0,10e-7 0,0 0.621118,4.993125 -1.266882,5.465125 0,0 -2.949,2.241 -3.657,3.893 0,0 -2.636,10.38 -9.87,8.847 0,0 -11.954,0.472 -15.375,3.775 -20.967,-2.878 -28.863,-22.112 -31.817,-37.285 -2.218,-4.632 -3.498,-9.82 -3.498,-15.325 z"
   id="path4254"
   inkscape:connector-curvature="0"
   style="fill:#f9f9f9"
   sodipodi:nodetypes="ssccccscccccccccccs" />
<g
   id="g849"
   transform="matrix(2.1681119,0.01521432,-0.01403429,1.9999507,-107.42926,-87.156518)"><path
     sodipodi:nodetypes="ccscc"
     inkscape:connector-curvature="0"
     id="path6810"
     d="m 90.714067,85.220216 c -2.2757,2.595266 -2.671383,5.949686 -2.671383,5.949686 0,0 -0.98914,-3.677366 -0.108905,-5.718921 0.367122,-0.851477 0.762583,-0.925627 0.762583,-0.925627 z"
     style="fill:#d4aa00;fill-opacity:1;stroke:none;stroke-width:0.88971102px;stroke-linecap:butt;stroke-linejoin:miter;stroke-opacity:1" /><path
     sodipodi:nodetypes="cccc"
     inkscape:connector-curvature="0"
     id="path6812"
     d="m 89.688628,84.838507 c 0,0 0.239013,2.369461 0.532332,2.775599 0.225632,0 1.117152,-2.226084 1.117152,-2.226084 z"
     style="fill:#d4aa00;fill-opacity:1;stroke:none;stroke-width:1px;stroke-linecap:butt;stroke-linejoin:miter;stroke-opacity:1" /><path
     sodipodi:nodetypes="cccc"
     inkscape:connector-curvature="0"
     id="path6812-7"
     d="m 90.714067,85.220216 c 0,0 0.224811,1.685946 0.457946,1.99055 0.179336,0 0.85309,-1.652991 0.85309,-1.652991 z"
     style="fill:#d4aa00;fill-opacity:1;stroke:none;stroke-width:0.77208292px;stroke-linecap:butt;stroke-linejoin:miter;stroke-opacity:1" /><path
     sodipodi:nodetypes="cccc"
     inkscape:connector-curvature="0"
     id="path6812-7-9"
     d="m 91.641431,85.456494 c 0,0 0.171302,1.484784 0.367637,1.742806 0.151029,0 0.815902,-1.425124 0.815902,-1.425124 z"
     style="fill:#d4aa00;fill-opacity:1;stroke:none;stroke-width:0.65210879px;stroke-linecap:butt;stroke-linejoin:miter;stroke-opacity:1" /><path
     inkscape:connector-curvature="0"
     id="path6867"
     d="m 92.82497,85.774176 c 0,0 -5.541477,-0.421554 -5.143729,-1.106563 0.397747,-0.68501 1.414213,-0.994369 1.414213,-0.994369 z"
     style="fill:#f9f9f9;stroke:none;stroke-width:1px;stroke-linecap:butt;stroke-linejoin:miter;stroke-opacity:1" /></g></svg>