<?xml version="1.0" encoding="utf-8"?>
<!-- Generator: Adobe Illustrator 16.0.0, SVG Export Plug-In . SVG Version: 6.00 Build 0)  -->
<!DOCTYPE svg PUBLIC "-//W3C//DTD SVG 1.1//EN" "http://www.w3.org/Graphics/SVG/1.1/DTD/svg11.dtd">
<svg version="1.1" id="Layer_1" xmlns="http://www.w3.org/2000/svg" xmlns:xlink="http://www.w3.org/1999/xlink" x="0px" y="0px"
	 width="128px" height="128px" viewBox="0 0 128 128" enable-background="new 0 0 128 128" xml:space="preserve">
<g>
	<path fill="#006838" d="M64,126C29.813,126,2,98.187,2,64C2,29.813,29.813,2,64,2c34.187,0,62,27.813,62,62
		C126,98.187,98.187,126,64,126z"/>
	<path d="M64,4c33.084,0,60,26.916,60,60s-26.916,60-60,60S4,97.084,4,64S30.916,4,64,4 M64,0C28.653,0,0,28.653,0,64
		s28.653,64,64,64s64-28.653,64-64S99.347,0,64,0L64,0z"/>
</g>
<polygon fill="#808285" stroke="#000000" stroke-width="2" stroke-miterlimit="10" points="64,39 83.134,17.806 81.678,46.322 
	110.194,44.865 88.999,64 110.194,83.134 81.678,81.678 83.134,110.194 64,89 44.865,110.194 46.322,81.678 17.806,83.134 39,64 
	17.806,44.865 46.322,46.322 44.865,17.806 "/>
<polygon fill="#F1F2F2" stroke="#000000" stroke-width="2" stroke-miterlimit="10" points="72.075,72.075 72.741,85.102 64,75.42 
	55.26,85.102 55.925,72.075 42.898,72.741 52.58,64 42.898,55.259 55.925,55.925 55.26,42.898 64,52.58 72.741,42.898 
	72.075,55.924 85.102,55.26 75.42,64 85.102,72.74 "/>
</svg>
