<?xml version="1.0" encoding="utf-8"?>
<!-- Generator: Adobe Illustrator 16.0.0, SVG Export Plug-In . SVG Version: 6.00 Build 0)  -->
<!DOCTYPE svg PUBLIC "-//W3C//DTD SVG 1.1//EN" "http://www.w3.org/Graphics/SVG/1.1/DTD/svg11.dtd">
<svg version="1.1" id="Layer_1" xmlns="http://www.w3.org/2000/svg" xmlns:xlink="http://www.w3.org/1999/xlink" x="0px" y="0px"
	 width="128px" height="128px" viewBox="0 0 128 128" enable-background="new 0 0 128 128" xml:space="preserve">
<g>
	<path fill="#1C75BC" d="M64.667,126c-34.187,0-62-27.813-62-62c0-34.187,27.813-62,62-62c34.187,0,62,27.813,62,62
		C126.667,98.187,98.854,126,64.667,126z"/>
	<path d="M64.667,4c33.084,0,60,26.916,60,60s-26.916,60-60,60s-60-26.916-60-60S31.583,4,64.667,4 M64.667,0
		c-35.347,0-64,28.653-64,64s28.653,64,64,64s64-28.653,64-64S100.014,0,64.667,0L64.667,0z"/>
</g>
<path fill="#6D6E71" stroke="#000000" stroke-width="2" stroke-linecap="round" stroke-linejoin="round" stroke-miterlimit="10" d="
	M60.341,63.119c0,0-2.362-16.324,3.419-21.666c0,0-1.328,10.981,0,14.543C63.76,55.996,61.23,56.294,60.341,63.119z"/>
<path fill="#414042" stroke="#000000" stroke-width="2" stroke-linecap="round" stroke-linejoin="round" stroke-miterlimit="10" d="
	M73.308,68.574c0.586,6.935,0.957,18.964-3.981,15.592c0,0,3.178-4.882,0.92-16.973c-1.651-0.55-3.414-0.86-5.253-0.86
	c-0.552,0-1.095,0.036-1.634,0.089C63.418,68.278,63.603,69.936,64,71c0,0-2.84,0.334-3.84,8c0,0-0.826-5.716-0.426-11.81
	c-1.423,0.475-2.764,1.127-3.984,1.945v-0.001C45.674,63.604,64.993,29,64.993,29c-28.5,24.333-15.551,59.131-15.551,59.131
	l0.008-0.023C51.717,94.449,57.81,99,64.993,99c9.112,0,16.5-7.313,16.5-16.334C81.493,76.65,78.198,71.409,73.308,68.574z"/>
<path fill="#6D6E71" stroke="#000000" stroke-width="2" stroke-linecap="round" stroke-linejoin="round" stroke-miterlimit="10" d="
	M69.827,46.77c0,0,5,1.837,5.333,3.506c0,0,3.334,12.436-3.5,10.099C71.66,60.374,76.59,56.593,69.827,46.77z"/>
</svg>
