<?xml version="1.0" encoding="utf-8"?>
<!-- Generator: Adobe Illustrator 16.0.0, SVG Export Plug-In . SVG Version: 6.00 Build 0)  -->
<!DOCTYPE svg PUBLIC "-//W3C//DTD SVG 1.1//EN" "http://www.w3.org/Graphics/SVG/1.1/DTD/svg11.dtd">
<svg version="1.1" id="Layer_1" xmlns="http://www.w3.org/2000/svg" xmlns:xlink="http://www.w3.org/1999/xlink" x="0px" y="0px"
	 width="128px" height="128px" viewBox="0 0 128 128" enable-background="new 0 0 128 128" xml:space="preserve">
<g>
	<path fill="#999999" d="M64,125C30.364,125,3,97.636,3,64S30.364,3,64,3s61,27.364,61,61S97.636,125,64,125z"/>
	<path fill="#009245" d="M64,6c31.981,0,58,26.019,58,58s-26.019,58-58,58S6,95.981,6,64S32.019,6,64,6 M64,0
		C28.653,0,0,28.653,0,64s28.653,64,64,64s64-28.653,64-64S99.347,0,64,0L64,0z"/>
</g>
</svg>
