<?xml version="1.0" encoding="UTF-8" standalone="no"?>
<!-- Generator: Adobe Illustrator 16.0.0, SVG Export Plug-In . SVG Version: 6.00 Build 0)  -->

<svg
   xmlns:dc="http://purl.org/dc/elements/1.1/"
   xmlns:cc="http://creativecommons.org/ns#"
   xmlns:rdf="http://www.w3.org/1999/02/22-rdf-syntax-ns#"
   xmlns:svg="http://www.w3.org/2000/svg"
   xmlns="http://www.w3.org/2000/svg"
   xmlns:sodipodi="http://sodipodi.sourceforge.net/DTD/sodipodi-0.dtd"
   xmlns:inkscape="http://www.inkscape.org/namespaces/inkscape"
   version="1.1"
   id="Layer_1"
   x="0px"
   y="0px"
   width="128px"
   height="128px"
   viewBox="0 0 128 128"
   enable-background="new 0 0 128 128"
   xml:space="preserve"
   sodipodi:docname="race_amal_active.svg"
   inkscape:version="0.92.4 (5da689c313, 2019-01-14)"><metadata
   id="metadata4261"><rdf:RDF><cc:Work
       rdf:about=""><dc:format>image/svg+xml</dc:format><dc:type
         rdf:resource="http://purl.org/dc/dcmitype/StillImage" /><dc:title></dc:title></cc:Work></rdf:RDF></metadata><defs
   id="defs4259" /><sodipodi:namedview
   pagecolor="#ffffff"
   bordercolor="#666666"
   borderopacity="1"
   objecttolerance="10"
   gridtolerance="10"
   guidetolerance="10"
   inkscape:pageopacity="0"
   inkscape:pageshadow="2"
   inkscape:window-width="944"
   inkscape:window-height="1042"
   id="namedview4257"
   showgrid="false"
   inkscape:zoom="5.54"
   inkscape:cx="64"
   inkscape:cy="68.140787"
   inkscape:window-x="960"
   inkscape:window-y="0"
   inkscape:window-maximized="0"
   inkscape:current-layer="Layer_1" />
<path
   fill="#A7A9AC"
   d="M64,126C29.813,126,2,98.188,2,64C2,29.813,29.813,2,64,2c34.187,0,62,27.813,62,62  C126,98.188,98.187,126,64,126z"
   id="path4250"
   style="fill:#180033;fill-opacity:1" />
<path
   fill="#009444"
   d="M64,4c33.084,0,60,26.916,60,60s-26.916,60-60,60S4,97.084,4,64S30.916,4,64,4 M64,0C28.653,0,0,28.653,0,64  c0,35.348,28.653,64,64,64c35.347,0,64-28.652,64-64C128,28.653,99.347,0,64,0L64,0z"
   id="path4252" />
<path
   d="m 27.137997,55.17 c 0,-19.302 15.314,-34.95 34.204,-34.95 1.224,0 2.43,0.071 3.62,0.199 l -0.195,-0.199 c 35.229,3.217 30.604,31.385 30.604,31.385 v 0 c 0.116,1.172 0.176,2.362 0.176,3.565 0,0.846 -0.066,1.675 -0.124,2.507 0.521,3.723 1.882,10.919 5.134003,16.838 0,0 2.241,6.016 -5.426003,4.364 0,0 -1.179,0.472 -0.826,1.298 0,0 1.148882,5.386874 -1.683118,5.622874 0,0 -9.043871,-2.72395 -0.197871,1.05005 0,0 0.818989,3.943076 -1.069011,4.415076 0,0 -2.949,2.241 -3.657,3.893 0,0 -2.636,10.38 -9.87,8.847 0,0 -11.954,0.472 -15.375,3.775 -20.967,-2.878 -28.863,-22.112 -31.817,-37.285 -2.218,-4.632 -3.498,-9.82 -3.498,-15.325 z"
   id="path4254"
   inkscape:connector-curvature="0"
   style="fill:#f9f9f9"
   sodipodi:nodetypes="ssccccscccccccccccs" />
</svg>